<?xml version="1.0" encoding="UTF-8" standalone="no"?>
<!DOCTYPE svg PUBLIC "-//W3C//DTD SVG 1.1//EN" "http://www.w3.org/Graphics/SVG/1.1/DTD/svg11.dtd">
<!-- 由 Microsoft Visio, SVG Export 生成 maximize_hover.svg 页-1 -->
<svg xmlns="http://www.w3.org/2000/svg" xmlns:xlink="http://www.w3.org/1999/xlink" xmlns:ev="http://www.w3.org/2001/xml-events"
		xmlns:v="http://schemas.microsoft.com/visio/2003/SVGExtensions/" width="0.229167in" height="0.229167in"
		viewBox="0 0 16.5 16.5" xml:space="preserve" color-interpolation-filters="sRGB" class="st2">
	<v:documentProperties v:langID="2052" v:metric="true" v:viewMarkup="false"/>

	<style type="text/css">
	<![CDATA[
		.st1 {fill:#15a644;stroke:none;stroke-linecap:butt;stroke-width:0.750001}
		.st2 {fill:none;fill-rule:evenodd;font-size:12px;overflow:visible;stroke-linecap:square;stroke-miterlimit:3}
	]]>
	</style>

	<g v:mID="0" v:index="1" v:groupContext="foregroundPage">
		<title>页-1</title>
		<v:pageProperties v:drawingScale="1" v:pageScale="1" v:drawingUnits="19" v:shadowOffsetX="9.00001"
				v:shadowOffsetY="-9.00001"/>
		<g id="shape1-1" v:mID="1" v:groupContext="shape" transform="translate(0.750001,-0.750001)">
			<title>工作表.1</title>
			<path d="M13.5 4.06 L10.28 7.28 L9.22 6.22 L12.44 3 L9.75 3 L9.75 1.5 L15 1.5 L15 6.75 L13.5 6.75 L13.5 4.06 ZM13.5 15
						 L13.5 9 L15 9 L15 16.5 L7.5 16.5 L7.5 15 L13.5 15 ZM1.5 3 L1.5 9 L0 9 L0 1.5 L7.5 1.5 L7.5 3 L1.5 3 ZM5.25
						 15 L5.25 16.5 L0 16.5 L0 11.25 L1.5 11.25 L1.5 13.94 L4.72 10.72 L5.78 11.78 L2.56 15 L5.25 15 Z"
					class="st1"/>
		</g>
	</g>
</svg>
